<?xml version="1.0" encoding="iso-8859-1"?>
<!-- Generator: Adobe Illustrator 16.0.0, SVG Export Plug-In . SVG Version: 6.00 Build 0)  -->
<!DOCTYPE svg PUBLIC "-//W3C//DTD SVG 1.1//EN" "http://www.w3.org/Graphics/SVG/1.1/DTD/svg11.dtd">
<svg version="1.1" id="Capa_1" xmlns="http://www.w3.org/2000/svg" xmlns:xlink="http://www.w3.org/1999/xlink" x="0px" y="0px"
	 width="947.516px" height="947.516px" viewBox="0 0 947.516 947.516" style="enable-background:new 0 0 947.516 947.516;"
	 xml:space="preserve">
<g>
	<g>
		<path d="M44.579,601.925h459.752c5.855,0,10.858-4.744,10.701-10.597c-0.889-33.234-13.227-133.217-129.477-133.217H163.355
			c-116.04,0-128.518,99.982-129.46,133.217C33.73,597.18,38.724,601.925,44.579,601.925z M412.521,538.201
			c13.673,0,13.673,21.201,0,21.201C398.85,559.402,398.85,538.201,412.521,538.201z M349.622,495.798
			c13.672,0,13.672,21.202,0,21.202C335.95,516.999,335.95,495.798,349.622,495.798z M274.449,495.798
			c13.672,0,13.672,21.202,0,21.202C260.776,516.999,260.776,495.798,274.449,495.798z M213.93,536.081
			c13.673,0,13.673,21.202,0,21.202C200.258,557.283,200.258,536.081,213.93,536.081z M165.166,491.557
			c13.672,0,13.672,21.202,0,21.202C151.494,512.759,151.494,491.557,165.166,491.557z M112.148,536.081
			c13.672,0,13.672,21.202,0,21.202C98.476,557.283,98.476,536.081,112.148,536.081z"/>
		<path d="M163.355,844.259h222.157c109.891,0,126.931-56.737,129.217-80.801c0.553-5.828-4.585-10.587-10.439-10.587H44.579
			c-5.855,0-10.978,4.758-10.408,10.585C36.523,787.52,53.697,844.259,163.355,844.259z"/>
		<path d="M511.588,714.124c20.618,0,37.332-16.714,37.332-37.332s-16.714-37.332-37.332-37.332H37.332
			C16.714,639.46,0,656.174,0,676.792s16.714,37.332,37.332,37.332H511.588z"/>
		<path d="M936.913,250.915h-87.321l10.622-42.131l22.038-87.411c1.432-5.678-1.994-11.506-7.648-13.019l-17.72-4.738
			c-5.655-1.512-11.384,1.868-12.793,7.552l-24.21,97.617l-10.448,42.131H504.45c-5.855,0-10.601,4.745-10.601,10.601v29.331
			c0,5.854,4.745,10.602,10.601,10.602h21.802l75.43,532.314c0.82,5.797,6.232,10.496,12.088,10.496h213.534
			c5.854,0,11.269-4.699,12.094-10.495l75.706-532.315h21.811c5.854,0,10.602-4.747,10.602-10.602v-29.331
			C947.515,255.66,942.769,250.915,936.913,250.915z"/>
	</g>
</g>
<g>
</g>
<g>
</g>
<g>
</g>
<g>
</g>
<g>
</g>
<g>
</g>
<g>
</g>
<g>
</g>
<g>
</g>
<g>
</g>
<g>
</g>
<g>
</g>
<g>
</g>
<g>
</g>
<g>
</g>
</svg>
