<?xml version="1.0" standalone="no"?>
<!DOCTYPE svg PUBLIC "-//W3C//DTD SVG 20010904//EN"
 "http://www.w3.org/TR/2001/REC-SVG-20010904/DTD/svg10.dtd">
<svg version="1.0" xmlns="http://www.w3.org/2000/svg"
 width="1089.000000pt" height="1280.000000pt" viewBox="0 0 1089.000000 1280.000000"
 preserveAspectRatio="xMidYMid meet">
<metadata>
Created by potrace 1.15, written by Peter Selinger 2001-2017
</metadata>
<g transform="translate(0.000000,1280.000000) scale(0.100000,-0.100000)"
fill="#000000" stroke="none">
<path d="M3340 12785 c-96 -7 -222 -14 -279 -14 -112 0 -194 -19 -230 -53 -25
-23 -27 -54 -5 -66 13 -7 7 -10 -22 -15 -61 -9 -559 -65 -663 -74 -88 -8 -94
-7 -101 12 -4 11 -21 32 -36 46 -62 57 -144 84 -299 100 -60 6 -122 17 -137
25 -37 20 -271 9 -308 -15 -14 -8 -55 -21 -91 -27 -88 -15 -127 -35 -183 -93
-121 -128 -275 -193 -701 -300 -185 -46 -242 -65 -267 -88 -19 -17 -24 -48 -9
-58 40 -24 359 -50 821 -66 315 -11 347 -14 372 -32 25 -18 34 -19 155 -9 70
6 148 15 173 21 25 6 80 10 122 11 92 0 213 16 288 37 43 12 66 26 103 66 l48
50 452 -12 c1133 -29 1411 -112 1596 -479 44 -87 103 -266 94 -287 -4 -11 0
-22 9 -29 9 -6 18 -29 20 -51 3 -22 8 -47 12 -57 7 -14 -12 -28 -44 -33 -3 0
-26 -7 -52 -14 -40 -11 -48 -18 -48 -37 0 -12 -5 -26 -11 -30 -7 -4 -2 -16 14
-33 19 -20 102 -273 366 -1116 189 -599 342 -1097 342 -1105 0 -8 -3 -40 -7
-70 -4 -36 1 -96 15 -175 17 -103 24 -123 46 -142 14 -13 38 -23 53 -23 27 0
29 -4 95 -217 37 -120 67 -229 67 -243 0 -72 179 -737 211 -781 11 -15 28 -30
38 -34 28 -8 138 -374 145 -480 8 -114 164 -720 204 -789 10 -17 33 -39 52
-48 35 -18 36 -20 126 -309 l92 -290 -27 -10 c-14 -5 -32 -12 -38 -14 -7 -2
-13 -11 -13 -19 0 -7 -12 -17 -26 -20 -32 -8 -27 -27 14 -46 27 -13 35 -25 53
-84 11 -38 23 -74 25 -81 3 -7 -23 -30 -61 -54 -69 -44 -85 -68 -85 -125 0
-54 45 -217 122 -439 53 -155 79 -216 99 -236 23 -24 25 -30 14 -42 -10 -12
-3 -44 46 -196 61 -188 87 -235 135 -247 l25 -7 -21 -17 -21 -17 61 -189 c49
-150 68 -196 92 -220 26 -26 45 -79 148 -425 65 -218 121 -403 125 -412 4 -12
-1 -18 -21 -23 l-27 -7 22 -23 c46 -48 125 -38 172 22 20 26 43 37 128 62 57
17 105 30 106 28 8 -9 56 -181 53 -190 -2 -6 -64 -43 -138 -82 -112 -59 -135
-75 -133 -93 2 -17 -6 -23 -43 -33 -24 -7 -47 -16 -50 -21 -2 -4 9 -18 26 -30
33 -25 55 -78 46 -112 -3 -14 2 -29 14 -42 10 -11 31 -56 45 -100 23 -70 28
-111 41 -323 16 -282 16 -283 116 -388 86 -91 113 -143 178 -347 51 -162 52
-168 34 -182 -18 -15 -18 -16 5 -35 19 -17 39 -23 71 -22 3 0 19 3 36 6 32 7
32 7 54 -61 35 -106 67 -159 109 -179 l36 -17 200 67 c110 36 203 66 207 66
18 0 119 -86 144 -122 120 -173 385 -290 624 -275 148 10 226 36 420 141 25
14 79 32 120 42 184 42 475 156 645 252 475 267 778 652 866 1097 18 92 19
414 0 515 -22 127 -67 297 -121 465 -134 414 -255 863 -335 1244 -59 281 -121
721 -176 1236 -27 255 -33 704 -11 820 36 183 77 280 155 363 56 58 106 88
220 128 279 100 424 246 387 391 -17 69 -45 117 -100 172 -237 237 -871 456
-1560 538 -220 26 -609 23 -798 -6 -340 -52 -574 -140 -713 -268 -66 -61 -95
-109 -105 -171 -9 -55 9 -102 77 -203 188 -280 337 -650 440 -1094 16 -71 32
-138 35 -147 4 -13 -7 -19 -53 -28 -32 -7 -63 -14 -70 -17 -7 -3 -18 10 -26
29 -20 47 -101 116 -155 131 l-45 14 -273 741 -274 742 35 46 c62 81 80 191
50 309 -26 102 -64 134 -114 98 -19 -14 -47 -20 -101 -22 -41 -1 -78 -5 -82
-7 -4 -3 -1 -21 7 -41 8 -19 12 -40 9 -45 -10 -16 -83 -3 -154 27 -120 51
-155 44 -131 -26 6 -18 10 -34 8 -36 -5 -4 -84 -17 -201 -33 -102 -14 -92 -21
-131 89 l-27 74 24 19 c12 9 42 26 64 37 26 13 41 26 40 37 -1 12 22 25 89 49
l89 32 29 -39 c47 -65 141 -95 214 -67 35 13 80 55 100 93 16 32 23 119 10
132 -5 5 -43 -3 -85 -18 -76 -26 -109 -30 -58 -7 27 13 36 46 14 54 -7 3 -47
-6 -88 -19 -385 -123 -493 -156 -494 -154 -2 2 -10 24 -20 50 -19 50 -15 68
12 68 30 1 98 37 139 73 37 34 40 35 79 25 114 -31 224 59 224 182 0 26 -3 49
-6 53 -3 3 -48 -10 -100 -29 -52 -19 -99 -34 -104 -34 -6 0 -10 11 -10 24 0
49 -12 86 -29 86 -9 -1 -69 -20 -134 -44 -93 -34 -117 -40 -115 -27 2 13 -8
17 -48 19 l-52 3 -30 82 c-34 93 -32 99 35 129 81 36 64 58 -22 28 -32 -11
-59 -20 -61 -20 -3 0 -34 91 -34 101 0 4 23 12 50 19 28 7 66 23 86 36 l35 24
29 -20 c16 -12 64 -27 106 -36 43 -8 79 -16 81 -18 3 -2 -25 -14 -61 -26 -38
-12 -66 -27 -66 -35 0 -23 59 -74 97 -84 65 -18 122 8 154 70 10 21 19 45 19
54 0 10 9 15 27 15 37 0 90 -60 172 -195 55 -92 70 -110 91 -110 92 0 10 288
-119 414 -54 53 -61 57 -201 101 -138 44 -145 47 -141 70 1 14 14 35 27 47 21
19 24 31 24 96 0 137 -60 307 -135 382 -35 34 -38 35 -113 35 -101 0 -120 12
-101 63 10 28 10 44 1 75 -15 48 -103 189 -203 324 l-76 103 -87 262 c-99 294
-158 425 -219 487 -23 23 -55 59 -70 79 -21 28 -38 38 -66 43 l-39 6 -4 72
c-3 49 -13 91 -31 130 -50 109 -94 146 -173 146 l-50 0 -52 146 c-29 81 -51
148 -49 150 2 2 31 22 65 44 34 22 62 46 62 55 0 11 5 13 26 5 46 -18 75 -11
110 24 31 31 34 39 34 91 0 66 11 64 -118 16 l-83 -31 -15 36 -15 37 -88 -6
-87 -7 -27 56 -28 56 18 57 c13 42 17 90 17 191 0 123 -2 141 -26 202 -73 185
-220 325 -455 435 -113 53 -228 87 -365 108 -142 22 -498 27 -718 10z m683
-112 c48 -22 53 -32 47 -88 -3 -29 -3 -29 -62 -7 -144 53 -386 92 -575 92 -64
0 -114 2 -111 5 11 11 270 23 458 21 175 -2 200 -4 243 -23z m416 -154 c143
-71 221 -181 229 -320 3 -44 2 -79 -2 -79 -3 0 -51 47 -106 104 -94 97 -234
209 -307 244 -18 9 -33 18 -33 22 0 11 105 60 131 60 14 0 54 -14 88 -31z
m388 -556 c5 -57 8 -103 7 -103 -2 0 -19 27 -39 60 -37 61 -37 61 -26 124 6
34 11 87 12 117 l1 54 19 -75 c10 -41 22 -121 26 -177z m-417 -1031 c45 -145
80 -265 78 -267 -2 -3 -15 -6 -28 -7 -22 -3 -27 10 -106 262 -46 146 -84 270
-84 277 0 16 32 22 47 9 6 -6 48 -129 93 -274z m1240 -853 c59 -162 111 -301
115 -310 5 -14 -5 -19 -61 -28 -36 -7 -68 -11 -70 -9 -12 13 -145 404 -140
417 2 9 12 36 21 61 11 30 14 59 10 87 -3 24 -8 43 -9 43 -2 0 -23 -7 -46 -15
-24 -8 -44 -14 -45 -13 -3 7 -25 59 -25 61 0 1 32 2 71 1 l71 -1 108 -294z
m210 -574 c26 -72 50 -139 54 -151 6 -19 -1 -24 -55 -43 -33 -13 -62 -21 -64
-19 -6 6 -105 282 -105 293 0 10 98 54 114 51 5 -1 30 -60 56 -131z m100 -254
c0 -15 90 -54 165 -71 l70 -16 -125 -43 c-69 -24 -132 -50 -141 -58 -25 -21
-49 -15 -60 14 -9 24 -7 30 17 47 29 22 54 72 54 111 0 14 5 25 10 25 6 0 10
-4 10 -9z m386 -208 c29 -63 66 -205 56 -214 -4 -4 -17 -10 -29 -13 -19 -6
-23 -2 -29 28 -3 20 -11 36 -16 36 -8 0 -198 -67 -270 -95 -13 -5 -18 -2 -18
12 0 27 -20 43 -54 43 -29 0 -32 4 -57 74 -25 71 -26 76 -10 90 22 20 35 20
52 0 43 -53 166 -71 226 -34 38 23 78 82 88 129 7 33 8 34 22 15 9 -10 26 -42
39 -71z m594 -1674 c25 -6 99 -12 165 -12 114 -2 120 -3 123 -23 3 -22 -6 -28
-98 -58 -25 -8 -67 -23 -95 -34 -27 -10 -56 -17 -63 -15 -11 4 -68 -6 -124
-23 -16 -5 -16 -3 0 28 9 18 18 59 20 91 5 62 4 62 72 46z m-5 -256 c8 -21
115 -335 115 -338 0 -7 -163 -60 -231 -75 l-81 -17 -10 26 c-28 75 -68 186
-68 192 0 4 23 22 50 40 28 18 50 36 50 40 0 17 -30 16 -73 -3 -26 -12 -49
-19 -51 -17 -3 2 -7 16 -11 30 -6 25 -3 27 142 81 81 31 151 57 154 57 4 1 10
-7 14 -16z m247 -753 c-4 -4 -63 -21 -132 -39 -69 -17 -135 -34 -146 -37 -18
-5 -24 1 -37 38 l-15 44 42 12 c88 24 171 127 192 237 7 39 8 37 56 -105 26
-79 45 -147 40 -150z m83 -10 c3 -5 -1 -10 -9 -10 -9 0 -16 5 -16 10 0 6 4 10
9 10 6 0 13 -4 16 -10z m31 -94 c1 -1 54 -149 118 -330 110 -308 116 -329 99
-342 -10 -7 -21 -14 -25 -14 -3 0 -23 -23 -44 -51 l-37 -51 -33 97 c-20 56
-31 107 -28 120 4 17 0 24 -18 30 -28 9 -28 9 -55 1 -19 -6 -23 -2 -28 31 -36
211 -167 393 -284 393 -66 0 -30 28 102 78 115 44 139 50 182 45 28 -3 51 -6
51 -7z m-30 -736 c12 -33 18 -62 15 -64 -3 -2 -27 -7 -53 -10 -41 -6 -48 -5
-48 9 0 9 9 29 19 44 11 15 23 39 26 54 4 15 10 27 14 27 3 0 16 -27 27 -60z
m618 -64 c16 -34 22 -76 9 -63 -10 11 -42 108 -34 102 5 -2 16 -20 25 -39z
m-264 -106 c22 -62 40 -115 40 -117 0 -8 -28 -1 -66 18 -84 40 -108 133 -54
209 28 39 25 42 80 -110z m560 -12 c6 -29 35 -193 65 -364 48 -277 85 -463
101 -517 4 -13 -12 -6 -54 25 -33 24 -66 48 -75 53 -8 6 -73 166 -142 357
l-128 346 26 34 c13 18 28 42 31 53 11 33 66 63 118 64 l46 1 12 -52z m-866
16 c27 -10 18 -21 -14 -16 -16 2 -27 8 -24 13 6 11 16 11 38 3z m456 -429 c33
-93 57 -172 53 -176 -8 -7 -325 -99 -342 -99 -23 0 -19 34 8 68 29 38 61 110
61 138 0 9 10 24 22 34 22 17 22 20 9 66 -24 85 -24 85 54 115 39 15 71 26 72
25 1 -1 29 -78 63 -171z m-1750 -29 c20 -70 19 -72 -10 -56 -27 15 -41 64 -28
101 6 16 12 28 14 26 3 -2 13 -34 24 -71z m260 23 c0 -10 -2 -19 -4 -19 -2 0
-11 -3 -20 -6 -12 -5 -16 0 -16 19 0 24 16 39 33 30 4 -2 7 -13 7 -24z m-41
-176 c62 -237 84 -354 72 -387 -5 -12 -28 56 -69 196 -34 118 -62 218 -62 221
0 4 11 7 25 7 20 0 26 -7 34 -37z m1659 -176 c17 -52 32 -98 32 -104 0 -12
-327 -160 -335 -151 -7 9 -77 219 -74 222 6 7 322 125 334 125 6 1 25 -41 43
-92z m136 -385 c26 -74 46 -135 44 -137 -4 -4 -259 -75 -268 -75 -4 0 7 28 24
62 28 56 31 72 33 163 l1 100 54 22 c38 15 55 18 59 10 4 -7 28 -72 53 -145z
m-1529 -156 c22 -127 20 -142 -17 -179 -17 -18 -33 -27 -35 -22 -26 82 -103
358 -103 368 0 8 12 23 28 33 37 24 51 44 52 74 2 34 56 -165 75 -274z m1911
58 c18 -18 20 -30 16 -85 l-5 -64 -12 35 c-7 19 -27 73 -44 120 l-31 85 28
-35 c15 -19 36 -44 48 -56z m-214 -375 c48 -134 87 -249 88 -255 0 -9 -112
-59 -115 -51 0 1 -13 20 -27 43 -59 92 -145 149 -245 162 l-55 7 -35 95 c-23
66 -31 101 -25 114 5 13 57 38 158 76 82 32 153 57 159 56 5 -2 49 -112 97
-247z m-1468 -252 c48 -153 86 -283 84 -289 -2 -5 -36 -25 -76 -44 l-73 -33
-8 22 c-23 62 -166 596 -160 601 2 2 33 12 69 23 44 13 67 16 71 9 4 -6 46
-136 93 -289z m1841 109 c8 -27 13 -51 11 -53 -4 -4 -46 109 -46 123 0 18 20
-22 35 -70z m-223 -278 c8 -24 13 -59 11 -78 -6 -46 22 -82 89 -116 27 -14 48
-27 46 -29 -3 -3 -284 -55 -300 -55 -4 0 0 19 9 43 11 27 17 76 17 139 l1 98
45 19 c63 27 66 26 82 -21z m217 -75 c7 -21 15 -43 17 -50 3 -7 -13 -2 -35 10
-44 24 -51 42 -23 63 25 19 28 18 41 -23z m-1934 -163 c-3 -5 -14 -10 -23 -9
-14 0 -13 2 3 9 27 11 27 11 20 0z m207 -64 c-5 -78 16 -130 58 -145 25 -8 32
-21 59 -107 17 -54 29 -99 28 -100 -5 -6 -240 -104 -242 -102 -4 5 -125 414
-125 422 0 3 6 6 14 6 8 0 28 12 45 26 27 22 120 60 156 63 7 1 9 -22 7 -63z
m1748 32 c0 -13 -23 -5 -28 10 -2 7 2 10 12 6 9 -3 16 -11 16 -16z m123 -201
c36 -100 73 -205 82 -234 16 -51 82 -164 104 -177 6 -4 29 -66 51 -139 34
-108 111 -347 127 -393 4 -11 -84 -31 -93 -21 -2 2 -52 141 -110 308 -104 298
-105 304 -89 332 15 26 15 30 1 52 -9 14 -25 25 -35 25 -15 0 -28 27 -66 138
-27 75 -56 158 -66 185 -13 37 -15 54 -7 81 6 20 16 32 23 30 7 -3 42 -87 78
-187z m-247 115 c14 -12 44 -82 83 -193 33 -97 61 -178 61 -182 0 -12 -95 -48
-98 -37 -2 6 -22 37 -44 70 -67 101 -163 164 -268 177 -48 6 -49 7 -64 51 -9
25 -13 48 -10 51 8 8 275 79 299 80 11 0 30 -8 41 -17z m303 -828 c56 -159
100 -301 99 -317 -2 -18 4 -32 15 -38 9 -6 17 -16 17 -22 0 -7 8 -29 19 -49
15 -30 16 -38 4 -42 -18 -7 2 -41 34 -55 50 -23 80 -10 131 53 36 45 60 -10
47 -112 -8 -67 -31 -125 -69 -169 -34 -40 -157 -103 -203 -103 -72 0 -140 55
-205 167 -29 50 -88 176 -88 189 0 2 9 4 21 4 76 0 114 109 70 205 -34 73 -91
104 -150 79 -41 -17 -38 -18 -44 7 -4 14 3 33 17 53 73 96 101 200 93 336 l-6
96 42 16 c32 11 44 12 49 3 4 -6 52 -142 107 -301z m-1639 67 c0 -5 -10 -13
-22 -16 -13 -4 -60 -34 -105 -66 -45 -33 -86 -59 -92 -59 -16 0 -24 46 -13 67
7 11 48 29 114 49 121 37 118 37 118 25z m-122 -408 c11 -36 18 -72 14 -80 -5
-8 -17 17 -34 67 -18 55 -22 80 -14 80 6 0 22 -30 34 -67z m2082 -8 c0 -9 -57
-34 -64 -28 -17 17 -4 33 29 33 19 0 35 -2 35 -5z m-1969 -277 c49 -104 87
-124 137 -70 21 22 77 52 97 52 6 0 25 -83 20 -88 -13 -13 -209 -7 -242 7 -27
11 -35 22 -48 67 -8 29 -18 60 -21 69 -4 10 0 15 13 15 14 0 27 -16 44 -52z
m312 -244 l26 -72 -54 -20 c-29 -11 -63 -18 -74 -15 -12 3 -32 -2 -46 -11 -33
-22 -35 -21 -35 16 0 54 37 116 93 153 28 19 54 31 58 27 3 -4 18 -39 32 -78z
m332 -646 c83 -105 82 -93 7 -94 -37 0 -101 -2 -142 -5 -65 -3 -80 -1 -110 18
-19 13 -30 23 -24 23 7 0 27 14 45 31 29 27 140 77 174 78 6 0 28 -23 50 -51z"/>
</g>
</svg>
